HIERARCHY
ROOT Hips
{
	OFFSET 0.000000 0.000000 0.000000
	CHANNELS 6 Xposition Yposition Zposition Xrotation Yrotation Zrotation
	JOINT LeftUpLeg_virtual
	{
		OFFSET 0.000000 0.000000 0.000000
		CHANNELS 3 Xrotation Yrotation Zrotation
		JOINT LeftUpLeg
		{
			OFFSET 0.086025 -0.002322 0.060046
			CHANNELS 3 Xrotation Yrotation Zrotation
			JOINT LeftLeg
			{
				OFFSET 0.005130 0.001862 0.314250
				CHANNELS 3 Xrotation Yrotation Zrotation
				JOINT LeftFoot
				{
					OFFSET 0.029099 0.003055 0.305414
					CHANNELS 3 Xrotation Yrotation Zrotation
					JOINT LeftToeBase
					{
						OFFSET 0.032406 0.158115 0.089037
						CHANNELS 3 Xrotation Yrotation Zrotation
						JOINT LeftToe_End
						{
							OFFSET 0.020098 0.068010 -0.003802
							CHANNELS 3 Xrotation Yrotation Zrotation
							End Site
							{
								OFFSET 0 0 0
							}
						}
					}
				}
			}
		}
	}
	JOINT RightUpLeg_virtual
	{
		OFFSET 0.000000 0.000000 0.000000
		CHANNELS 3 Xrotation Yrotation Zrotation
		JOINT RightUpLeg
		{
			OFFSET -0.086024 0.004521 0.060047
			CHANNELS 3 Xrotation Yrotation Zrotation
			JOINT RightLeg
			{
				OFFSET -0.005129 0.001774 0.314251
				CHANNELS 3 Xrotation Yrotation Zrotation
				JOINT RightFoot
				{
					OFFSET -0.029099 0.004797 0.305414
					CHANNELS 3 Xrotation Yrotation Zrotation
					JOINT RightToeBase
					{
						OFFSET -0.032405 0.159308 0.089036
						CHANNELS 3 Xrotation Yrotation Zrotation
						JOINT RightToe_End
						{
							OFFSET -0.020098 0.066652 -0.003802
							CHANNELS 3 Xrotation Yrotation Zrotation
							End Site
							{
								OFFSET 0 0 0
							}
						}
					}
				}
			}
		}
	}
	JOINT Spine_virtual
	{
		OFFSET 0.000000 0.000000 0.000000
		CHANNELS 3 Xrotation Yrotation Zrotation
		JOINT Spine
		{
			OFFSET 0.000000 -0.008525 -0.108039
			CHANNELS 3 Xrotation Yrotation Zrotation
			JOINT Spine1
			{
				OFFSET 0.000000 -0.009946 -0.126046
				CHANNELS 3 Xrotation Yrotation Zrotation
				JOINT Spine2
				{
					OFFSET 0.000000 -0.011367 -0.144052
					CHANNELS 3 Xrotation Yrotation Zrotation
					JOINT Neck_virtual
					{
						OFFSET 0.000000 0.000000 0.000000
						CHANNELS 3 Xrotation Yrotation Zrotation
						JOINT Neck
						{
							OFFSET 0.000000 -0.012788 -0.162059
							CHANNELS 3 Xrotation Yrotation Zrotation
							JOINT Head
							{
								OFFSET 0.000000 -0.019313 -0.077391
								CHANNELS 3 Xrotation Yrotation Zrotation
								JOINT HeadTop_End
								{
									OFFSET 0.000000 -0.142419 -0.570699
									CHANNELS 3 Xrotation Yrotation Zrotation
									End Site
									{
										OFFSET 0 0 0
									}
								}
							}
						}
					}
					JOINT LeftShoulder_virtual
					{
						OFFSET 0.000000 0.000000 0.000000
						CHANNELS 3 Xrotation Yrotation Zrotation
						JOINT LeftShoulder
						{
							OFFSET 0.059117 -0.013497 -0.154003
							CHANNELS 3 Xrotation Yrotation Zrotation
							JOINT LeftArm
							{
								OFFSET 0.105067 -0.001420 0.016848
								CHANNELS 3 Xrotation Yrotation Zrotation
								JOINT LeftForeArm
								{
									OFFSET 0.311627 -0.003307 -0.007856
									CHANNELS 3 Xrotation Yrotation Zrotation
									JOINT LeftHand
									{
										OFFSET 0.267365 -0.006620 -0.009061
										CHANNELS 3 Xrotation Yrotation Zrotation
										End Site
										{
											OFFSET 0 0 0
										}
									}
								}
							}
						}
					}
					JOINT RightShoulder_virtual
					{
						OFFSET 0.000000 0.000000 0.000000
						CHANNELS 3 Xrotation Yrotation Zrotation
						JOINT RightShoulder
						{
							OFFSET -0.059117 -0.012078 -0.154003
							CHANNELS 3 Xrotation Yrotation Zrotation
							JOINT RightArm
							{
								OFFSET -0.105067 0.001420 0.016849
								CHANNELS 3 Xrotation Yrotation Zrotation
								JOINT RightForeArm
								{
									OFFSET -0.311626 -0.007328 -0.007857
									CHANNELS 3 Xrotation Yrotation Zrotation
									JOINT RightHand
									{
										OFFSET -0.267364 -0.007689 -0.009061
										CHANNELS 3 Xrotation Yrotation Zrotation
										End Site
										{
											OFFSET 0 0 0
										}
									}
								}
							}
						}
					}
				}
			}
		}
	}
}
MOTION
Frames: 7
Frame Time: 0.03333333
0.059223 0.706513 -0.178030 0.000000 0.000000 0.000000 84.569463 -3.409491 67.209751 -4.028117 8.718760 7.441239 31.161707 4.497851 8.694054 -24.718912 -16.705914 14.002820 0.454814 -0.003410 0.001136 0.000000 0.000000 0.000000 84.354783 -3.140941 64.112383 -9.370919 -18.157455 0.534606 41.140903 2.468566 12.235789 -22.473913 15.389465 11.250087 -0.478863 -0.529630 0.007132 0.000000 0.000000 0.000000 84.585268 -4.110405 63.096980 6.252346 10.115451 -16.054027 -0.329616 -8.639540 -2.361494 0.000000 0.000000 0.000000 0.055567 -8.711514 -2.253221 1.271468 -7.428918 8.410091 -3.097361 7.241874 49.807997 0.000000 0.000000 0.000000 0.329919 -8.176474 -2.266076 0.124745 5.739737 -2.270121 30.006353 -33.247687 15.446136 1.286036 0.870779 90.474919 0.000000 0.000000 0.000000 0.081815 -9.148057 -2.260128 0.583274 -7.535912 -5.164994 -46.011720 16.662586 5.164238 2.952229 -0.452298 -36.201761 0.000000 0.000000 0.000000 
0.026654 0.697016 -0.205564 0.000000 0.000000 0.000000 84.367350 -6.615419 58.618411 -4.269676 15.927373 -2.804823 34.540458 5.964530 7.434891 -24.696451 -19.606447 7.544516 -1.193771 0.306901 -0.023893 0.000000 0.000000 0.000000 85.703602 -5.958082 57.372435 -7.351146 -15.291667 6.073888 51.354936 7.074225 12.318174 -29.810395 11.923964 10.253832 -3.029099 0.003402 -0.012528 0.000000 0.000000 0.000000 84.697535 -6.963274 58.738500 6.281798 8.742065 -14.387488 0.284615 -8.777782 -2.026413 0.000000 0.000000 0.000000 0.646885 -8.671838 -1.957945 1.047867 -5.597467 8.998129 -1.265433 11.937222 50.110929 0.000000 0.000000 0.000000 0.875479 -8.283214 -1.973153 0.046748 0.859879 -3.649435 12.492054 -35.840338 4.783133 0.616958 0.398227 106.432598 0.000000 0.000000 0.000000 0.527290 -9.175655 -1.965245 0.533266 -4.710148 -2.135178 -46.335515 21.060911 10.457762 2.718567 -0.603315 -46.526531 0.000000 0.000000 0.000000 
0.001795 0.688913 -0.229418 0.000000 0.000000 0.000000 85.349170 -10.392248 56.378649 -2.414861 22.849957 -14.506424 37.847089 8.822825 7.058988 -24.427229 -21.281968 3.305454 -1.111274 -0.106830 0.001762 0.000000 0.000000 0.000000 85.618313 -10.979159 57.090167 -3.126087 -10.060604 5.093267 54.760646 8.846834 14.127912 -32.759841 8.608574 11.058051 -6.603489 0.759932 0.037087 0.000000 0.000000 0.000000 86.142599 -11.421219 58.238673 7.856457 7.025480 -10.934552 0.481732 -6.267586 -1.546766 0.000000 0.000000 0.000000 0.689401 -6.135661 -1.475434 0.569856 -4.397725 7.770920 -2.687604 12.816800 42.876318 0.000000 0.000000 0.000000 0.905685 -5.790748 -1.469152 0.731507 -5.163789 0.568981 4.664258 -41.115195 5.457073 0.331240 0.057320 113.955382 0.000000 0.000000 0.000000 0.617701 -6.704990 -1.530160 0.572118 0.330059 0.100051 -55.983058 25.837482 13.861688 2.209520 -0.772364 -63.853362 0.000000 0.000000 0.000000 
-0.016087 0.686721 -0.244568 0.000000 0.000000 0.000000 85.851708 -14.237034 61.773843 1.047444 27.762369 -19.189341 42.680158 10.301425 4.896853 -20.483958 -20.838308 1.717792 -6.920724 0.009432 -0.017626 0.000000 0.000000 0.000000 84.965846 -15.688892 62.097730 0.797032 -5.707772 2.890915 54.319948 9.062786 14.459761 -35.206869 7.751192 10.566345 -6.133728 0.029437 -0.011007 0.000000 0.000000 0.000000 85.801465 -15.606345 60.484228 11.629851 5.922753 -6.354829 2.508182 -3.724089 -0.899173 0.000000 0.000000 0.000000 2.632265 -3.586886 -0.774220 -3.798443 -3.917817 4.675285 -5.639026 9.013072 27.655544 0.000000 0.000000 0.000000 2.834819 -3.143521 -0.805201 1.547726 -5.860242 5.041675 -7.454127 -37.972874 8.586649 0.351263 0.084456 115.313059 0.000000 0.000000 0.000000 2.662086 -4.186447 -0.790265 0.687931 0.405643 -0.936567 -58.670014 30.032543 12.239724 1.848992 -0.787815 -74.760915 0.000000 0.000000 0.000000 
-0.028409 0.697224 -0.249309 0.000000 0.000000 0.000000 86.472654 -14.379461 66.418337 -0.262497 28.836246 -16.775370 47.910792 9.227909 3.457716 -11.541612 -14.992342 2.092067 -18.785819 -1.903682 -0.078105 0.000000 0.000000 0.000000 85.093290 -16.483328 65.858958 2.505221 -3.477045 0.460828 50.077414 6.709615 13.163501 -35.890721 7.290289 10.400562 -1.571152 0.011063 -0.007074 0.000000 0.000000 0.000000 85.141238 -16.943970 63.193334 13.164391 4.937167 -2.875146 3.368099 -2.485399 -0.429335 0.000000 0.000000 0.000000 3.478009 -2.602494 -0.277087 -7.595068 -3.388483 1.087940 -7.324022 5.411893 10.946419 0.000000 0.000000 0.000000 3.525114 -2.086648 -0.386200 1.083803 0.140427 5.015255 -18.012490 -26.618461 12.164526 0.694361 0.472651 106.836931 0.000000 0.000000 0.000000 3.428528 -3.201819 -0.286828 0.827799 -2.637472 -3.394407 -53.685277 30.094896 8.059731 1.610053 -0.677872 -78.310612 0.000000 0.000000 0.000000 
-0.037167 0.722215 -0.245326 0.000000 0.000000 0.000000 88.140852 -9.226701 68.566643 -5.131028 26.470941 -12.279002 44.175007 4.851389 6.818816 -5.336672 -8.740979 3.302086 -18.862206 -5.726673 -0.581360 0.000000 0.000000 0.000000 87.282216 -12.220207 68.489121 2.184238 -1.710386 -2.747164 39.822206 2.986957 12.621256 -31.615006 6.950096 11.418366 -1.218104 -0.251587 -0.013832 0.000000 0.000000 0.000000 86.921418 -12.650935 66.136052 9.775792 3.835092 -0.028162 1.336836 -1.467864 -0.084719 0.000000 0.000000 0.000000 1.403661 -1.671173 0.012188 -6.798807 -2.587390 -1.942046 -6.785829 3.240833 -4.586983 0.000000 0.000000 0.000000 1.319060 -1.070008 -0.085412 0.588643 5.936295 5.276141 -21.187204 -14.510739 13.512979 1.524937 0.922630 83.409116 0.000000 0.000000 0.000000 1.341919 -2.209143 -0.009626 0.772907 -4.903572 -4.302311 -45.638358 24.980109 3.108602 1.575496 -0.555854 -73.627131 0.000000 0.000000 0.000000 
-0.040095 0.745605 -0.230740 0.000000 0.000000 0.000000 90.018512 -4.341674 73.007851 -7.282474 22.204788 -12.707241 30.865587 3.886270 8.693123 -4.312399 -8.636583 2.871053 -7.016821 -5.050601 -0.255091 0.000000 0.000000 0.000000 90.221663 -5.695535 73.031374 2.089554 -1.259956 -5.673681 25.463186 -0.453540 11.682777 -23.753392 9.747979 10.783700 -3.413955 -0.862066 -0.025902 0.000000 0.000000 0.000000 89.462378 -6.253808 69.873272 3.277114 3.999222 0.920086 -0.235908 -0.640478 0.038861 0.000000 0.000000 0.000000 -0.127878 -0.808527 0.097453 -5.486131 -1.613246 -3.804428 -4.805576 0.356188 -15.320169 0.000000 0.000000 0.000000 -0.278445 -0.068586 0.044104 0.316963 9.519043 7.837725 -13.684309 -4.796192 16.952347 2.717057 0.900728 51.686012 0.000000 0.000000 0.000000 -0.174931 -1.218420 0.110326 0.518759 -6.902198 -4.193634 -35.781500 17.737788 -4.318941 1.860599 -0.488602 -61.267548 0.000000 0.000000 0.000000 
